<svg width="256" height="256" viewBox="0 0 256 256" fill="none" xmlns="http://www.w3.org/2000/svg">
<path d="M128 -1.02899L241.449 221.101H14.5507L128 -1.02899Z" fill="#119EDA"/>
<path d="M128 257.174L14.5507 35.0435L241.449 35.0435L128 257.174Z" fill="#119EDA"/>
<rect x="52.0581" y="69.2174" width="149.986" height="112.014" rx="6" fill="#2D2D30"/>
<path d="M99.5122 164.145C105.798 164.145 110.894 159.049 110.894 152.763C110.894 146.477 105.798 141.381 99.5122 141.381C93.2262 141.381 88.1304 146.477 88.1304 152.763C88.1304 159.049 93.2262 164.145 99.5122 164.145Z" fill="white"/>
<path d="M88.1304 82.906V97.6814C124.834 97.6814 154.594 127.441 154.594 164.145H169.369C169.369 119.296 132.979 82.906 88.1304 82.906V82.906ZM88.1304 112.457V127.232C108.492 127.232 125.043 143.783 125.043 164.145H139.818C139.818 135.586 116.689 112.457 88.1304 112.457V112.457Z" fill="white"/>
</svg>
